<?xml version="1.0" encoding="utf-8"?>
<!-- Generator: Adobe Illustrator 19.0.0, SVG Export Plug-In . SVG Version: 6.00 Build 0)  -->
<svg version="1.1" id="Layer_1" xmlns="http://www.w3.org/2000/svg" xmlns:xlink="http://www.w3.org/1999/xlink" x="0px" y="0px"
	 viewBox="0 0 308.967 183.021" enable-background="new 0 0 308.967 183.021" xml:space="preserve">
<path id="XMLID_15_" fill="#010101" d="M14.517,164.296c1.928-0.432,2.827-2.624,1.803-4.313c-4.568-7.538-7.717-30.729,56.2-86.964
	c16.894-14.864,50.408-41.217,82.876-50.691c36.503-10.651,25.713,11.714-24.992,65.627c-48.306,51.362-50.384,45.917-50.384,51.26
	c0,5.283,5.283-9.199,55.033-32.199c15.723-7.269-10.095,11.586-8.506,14.46c1.003,1.813,7.211-1.101,11.657-3.498
	c1.961-1.058,4.306,0.502,4.098,2.721v0c-0.193,2.063,2.002,3.501,3.816,2.5l1.169-0.645c0,0,31.436-32.831,66.849-59.205
	c38.331-28.548,69.759-44.579,91.597-53.414C310.99,7.808,309.474,0,303.803,0l0,0c-0.675,0-1.347,0.046-2.012,0.138
	c-2.341,0.323-4.525,1.324-6.453,2.692c-5.953,4.226-27.563,15.48-73.059,49.403c-30.773,22.945-65.057,52.511-75.396,61.546
	c-1.492,1.304-5.597,2.619-5.339,0.428c0.13-1.103-1.749-1.059-3.647-0.744c-1.083,0.18-1.791-1.101-1.042-1.904
	c5.16-5.532,13.975-16.432-8.303-5.293c-16.268,8.134-28.75,15.083-28.75,15.083s56.521-52.864,79.672-84.912
	c23.661-32.755-17.299-59.472-115.339,39.245C-27.027,167.477,1.892,167.126,14.517,164.296z"/>
</svg>
