<?xml version="1.0" encoding="utf-8"?>
<!-- Generator: Adobe Illustrator 19.0.0, SVG Export Plug-In . SVG Version: 6.00 Build 0)  -->
<svg version="1.1" id="Layer_1" xmlns="http://www.w3.org/2000/svg" xmlns:xlink="http://www.w3.org/1999/xlink" x="0px" y="0px"
	 viewBox="0 0 512 512" style="enable-background:new 0 0 512 512;" xml:space="preserve">
<path id="XMLID_44_" d="M258.8,512c-2.1,0-4.2,0-6.3,0c-2.5-1-4.8-2.2-7.4-2.9c-56.2-15.7-112.4-31.4-168.6-46.9
	c-4.1-1.1-5.7-2.9-6-7.2c-1.4-18.5-3.1-37-4.7-55.5c-4.9-54-9.8-108-14.6-161.9C44.6,164.2,38,90.7,31.5,17.1
	C31,11.6,30.8,6.1,30.4,0c151,0,301.1,0,451.3,0c0,4.6,0,9.2,0,13.8c-0.7,3.2-1.8,6.3-2.1,9.6c-4.1,46.1-8.1,92.1-12.2,138.2
	c-5.5,61.8-11.1,123.7-16.7,185.5c-3.2,35.3-6.4,70.5-9.3,105.8c-0.5,5.8-2.6,8.4-8.5,10c-48.8,13.2-97.6,26.8-146.3,40.4
	C277.2,505.9,268,509.1,258.8,512z M132.6,289.5c0.1,2,0.1,3.3,0.2,4.5c2.3,25.7,4.8,51.4,6.9,77.1c0.4,5,2,7.1,6.8,8.4
	c35.3,9.6,70.4,19.5,105.7,29.1c2.3,0.6,5,0.9,7.3,0.3c35.7-9.8,71.3-19.8,107.1-29.5c4.2-1.1,5.4-3.3,5.8-7.3
	c3.4-38.2,7-76.4,10.4-114.5c3.8-42.1,7.4-84.3,11.1-126.4c1.2-13.4,2.4-26.8,3.6-40.5c-94.5,0-188.3,0-282.6,0
	c1.7,18.9,3.4,37.2,5.2,56.3c72.2,0,143.6,0,215.4,0c-1.7,19.5-3.3,38.1-5,57.4c-47.6,0-94.4,0-141.7,0c1.8,19.1,3.6,37.2,5.4,56.4
	c43.7,0,87.2,0,130.9,0c0,2.8,0.2,4.7,0,6.5c-1.9,20.3-4.1,40.6-5.7,61c-0.3,4.4-1.9,6-5.8,7.1c-18.3,4.8-36.5,9.9-54.8,14.7
	c-2.3,0.6-5,0.3-7.3-0.3c-14.1-3.7-28-7.6-42.1-11.4c-17.1-4.7-16.9-4.7-17.9-22.6c-0.5-8.8-1.6-17.7-2.4-26.5
	C169.8,289.5,151.5,289.5,132.6,289.5z"/>
</svg>
