<?xml version="1.0" encoding="utf-8"?>
<!-- Generator: Adobe Illustrator 19.0.0, SVG Export Plug-In . SVG Version: 6.00 Build 0)  -->
<svg version="1.1" id="Layer_1" xmlns="http://www.w3.org/2000/svg" xmlns:xlink="http://www.w3.org/1999/xlink" x="0px" y="0px"
	 viewBox="0 0 512 512" style="enable-background:new 0 0 512 512;" xml:space="preserve">
<path id="XMLID_44_" d="M30.1,0.3c0-0.1,0-0.2,0-0.3c150.6,0,301.2,0,451.8,0c0,0.1,0,0.2,0,0.3c-0.1,0.2-0.2,0.5-0.3,0.7
	c-0.4,3.9-0.7,7.8-1,11.7c-0.6,6.5-1.1,13-1.7,19.5c-0.7,7.9-1.4,15.7-2.1,23.6c-0.7,7.6-1.3,15.2-2,22.8
	c-0.7,7.8-1.4,15.6-2.1,23.5c-0.6,6.4-1.1,12.9-1.7,19.3c-0.7,7.9-1.4,15.7-2.1,23.6c-0.6,6.4-1.1,12.9-1.7,19.3
	c-0.7,7.8-1.4,15.5-2.1,23.3c-0.7,7.7-1.3,15.3-2,23c-0.7,7.9-1.4,15.7-2.1,23.6c-0.7,7.6-1.3,15.2-2,22.8
	c-0.7,7.9-1.4,15.7-2.1,23.6c-0.6,6.4-1.1,12.9-1.7,19.3c-0.7,7.8-1.4,15.5-2.1,23.3c-0.7,7.7-1.4,15.3-2,23
	c-0.7,7.9-1.4,15.7-2.1,23.6c-0.6,6.4-1.1,12.9-1.7,19.3c-0.7,7.8-1.4,15.5-2.1,23.3c-0.7,7.7-1.4,15.3-2,23
	c-0.7,7.8-1.4,15.6-2.1,23.5c-0.1,1.3-0.5,1.8-1.7,2.1c-16.6,4.6-33.3,9.2-49.9,13.8c-43.7,12.1-87.4,24.2-131.2,36.4
	c-0.5,0.1-0.9,0.4-1.4,0.6c-0.5,0-1.1,0-1.6,0c-0.5-0.2-1.1-0.5-1.6-0.6c-40.2-11.2-80.4-22.3-120.6-33.5
	c-19.9-5.5-39.9-11.1-59.8-16.6c-1.1-0.3-1.8-0.6-1.8-2c-0.2-4-0.7-7.9-1-11.9c-0.7-7.9-1.4-15.7-2.1-23.6c-0.7-7.6-1.3-15.2-2-22.8
	c-0.7-7.9-1.4-15.7-2.1-23.6c-0.6-6.4-1.1-12.9-1.7-19.3c-0.7-7.8-1.4-15.5-2.1-23.3c-0.6-6.5-1.1-13-1.7-19.5
	c-0.7-7.8-1.4-15.5-2.1-23.3c-0.7-7.7-1.3-15.4-2-23.1c-0.7-7.8-1.4-15.6-2.1-23.5c-0.7-7.7-1.3-15.3-2-23
	c-0.7-7.8-1.4-15.5-2.1-23.3c-0.7-7.7-1.3-15.4-2-23.1c-0.7-7.8-1.4-15.5-2.1-23.3c-0.7-7.7-1.3-15.4-2-23.1
	c-0.7-7.8-1.4-15.5-2.1-23.3c-0.7-7.7-1.3-15.4-2-23.1c-0.8-8.9-1.6-17.9-2.4-26.8c-0.7-7.7-1.3-15.4-2-23.1C32.5,25,31.8,17,31.1,9
	C30.8,6.1,30.4,3.2,30.1,0.3z M325.4,265.1c-0.4,4.7-0.8,9.1-1.2,13.5c-0.6,6.4-1.1,12.9-1.7,19.3c-0.6,6.7-1.2,13.4-1.8,20.1
	c-0.6,6.3-1.1,12.6-1.7,18.9c-0.1,1.1-0.5,1.6-1.7,1.9c-20.1,5.4-40.2,10.8-60.4,16.2c-0.8,0.2-1.8,0.2-2.6,0
	c-19.4-5.2-38.7-10.4-58.1-15.7c-3.4-0.9-3.4-0.9-3.7-4.3c-1.1-11.8-2.1-23.6-3.2-35.3c-0.2-2.1-0.4-4.2-0.6-6.2
	c-19,0-37.8,0-56.7,0c0.3,3.5,0.6,6.8,0.9,10.2c0.7,7.7,1.3,15.4,2,23.1c0.8,8.9,1.6,17.7,2.4,26.6c0.8,8.9,1.6,17.9,2.3,26.8
	c0.1,1.3,0.5,2,1.9,2.4c37.7,10.4,75.4,20.9,113,31.3c0.6,0.2,1.4,0.2,2,0c6.9-1.9,13.9-3.8,20.8-5.7c30.9-8.6,61.9-17.2,92.8-25.7
	c1-0.3,1.4-0.7,1.4-1.7c0.1-1.3,0.2-2.5,0.3-3.8c0.6-6.6,1.2-13.2,1.8-19.8c0.6-6.4,1.1-12.9,1.7-19.3c0.6-6.7,1.2-13.3,1.8-20
	c0.6-6.4,1.1-12.9,1.7-19.3c0.6-6.6,1.2-13.2,1.8-19.8c0.6-6.5,1.1-13,1.7-19.5c0.6-6.6,1.2-13.2,1.8-19.8
	c0.6-6.6,1.2-13.2,1.8-19.8c0.3-3.6,0.6-7.2,1-11.1c-68.7,0-137.3,0-205.9,0c-1.7-19.4-3.4-38.6-5.2-57.9c72.2,0,144.2,0,216.3,0
	c1.7-18.8,3.4-37.5,5.1-56.3c-94.4,0-188.7,0-283.1,0c5.1,57,10.1,113.8,15.2,170.7C194.8,265.1,260,265.1,325.4,265.1z"/>
</svg>
