<?xml version="1.0" encoding="utf-8"?>
<!-- Generator: Adobe Illustrator 19.0.0, SVG Export Plug-In . SVG Version: 6.00 Build 0)  -->
<svg version="1.1" id="Layer_1" xmlns="http://www.w3.org/2000/svg" xmlns:xlink="http://www.w3.org/1999/xlink" x="0px" y="0px"
	 viewBox="0 0 512 512" style="enable-background:new 0 0 512 512;" xml:space="preserve">
<style type="text/css">
	.st0{fill:#262C34;}
	.st1{fill:#FFFFFF;}
</style>
<g id="XMLID_2_">
	<path id="XMLID_6_" class="st0" d="M465.8,0H46.4C20.8,0,0,20.8,0,46.4v419.4c0,25.6,20.8,46.4,46.4,46.4h419.4
		c25.6,0,46.4-20.8,46.4-46.4V46.4C512.2,20.8,491.4,0,465.8,0z"/>
	<g id="XMLID_3_">
		<path id="XMLID_5_" class="st1" d="M171.2,161.2c17,0,31.3-13.3,31.3-30.8c0-17.5-14.3-30.8-31.3-30.8c-17,0-31.3,13.3-31.3,30.8
			C139.9,147.8,154.2,161.2,171.2,161.2z"/>
		<path id="XMLID_4_" class="st1" d="M106.3,326.3c-1.8,7.8-2.8,16.3-2.8,23.2c0,27.2,14.7,45.2,46,45.2c26,0,47-15.4,62.1-40.3
			l-9.2,37.1H254l29.5-118.1c7.4-29.9,21.6-45.4,43.3-45.4c17,0,27.6,10.6,27.6,28.1c0,5.1-0.5,10.6-2.3,16.6l-15.2,54.3
			c-2.3,7.8-3.2,15.7-3.2,23c0,25.8,15.2,44.6,46.9,44.6c27.2,0,48.8-17.5,60.7-59.4l-20.2-7.8c-10.1,28.1-18.9,33.1-25.8,33.1
			c-6.9,0-10.6-4.6-10.6-13.8c0-4.1,0.9-8.7,2.3-14.3l14.7-52.9c3.7-12.4,5.1-23.4,5.1-33.6c0-39.6-23.9-60.2-52.9-60.2
			c-27.1,0-54.8,24.5-68.6,50.3l10.1-46.3h-78.7l-11,40.7h36.8l-22.7,90.8c-17.8,39.6-50.5,40.2-54.6,39.3c-6.7-1.5-11-4.1-11-12.8
			c0-5.1,0.9-12.3,3.2-21.1l34.5-136.9h-87.4l-11,40.7h36.4L106.3,326.3z"/>
	</g>
</g>
</svg>
