<?xml version="1.0" encoding="utf-8"?>
<!-- Generator: Adobe Illustrator 19.0.0, SVG Export Plug-In . SVG Version: 6.00 Build 0)  -->
<svg version="1.1" id="Layer_1" xmlns="http://www.w3.org/2000/svg" xmlns:xlink="http://www.w3.org/1999/xlink" x="0px" y="0px"
	 viewBox="0 0 512 512" style="enable-background:new 0 0 512 512;" xml:space="preserve">
<path id="XMLID_28_" d="M29.9,8.5c0-2.6,0-5.3,0-7.9c149,0,298,0,447,0.1c1.6,0,5.7-2.7,5.3,2.5c-0.4,0.4-1.1,0.9-1.2,1.3
	c-1.4,16.7-2.8,33.5-4.2,50.2c-1.4,16.5-2.8,33-4.3,49.5c-2,21.7-4.2,43.4-6.2,65.1c-1.6,17.4-2.7,34.8-4.3,52.2
	c-2.4,26.9-5.2,53.8-7.6,80.7c-2,22.4-3.6,44.8-5.6,67.2c-2.5,28.4-5.2,56.9-7.6,85.3c-0.4,4.3-2.1,6.1-5.9,7.2
	c-44.9,12.5-89.8,25.1-134.7,37.8c-14.1,4-28.1,8.3-42.1,12.4c-2.2,0-4.4,0-6.6,0c-11.1-3.4-22.1-7.1-33.2-10.2
	c-47.2-13.4-94.4-26.7-141.6-39.8c-4.5-1.2-5.9-3.7-6.3-7.7c-1.8-21.1-3.7-42.2-5.5-63.2c-1.4-16.7-2.7-33.5-4.2-50.2
	c-2.1-23.2-4.3-46.5-6.4-69.7c-1.5-16.5-2.7-33-4.2-49.6c-2-22.8-4.3-45.6-6.3-68.4c-1.5-16.1-2.7-32.2-4.2-48.2
	c-2.1-23.5-4.1-46.9-6.4-70.4C32.9,25.9,31.2,17.2,29.9,8.5z M318.1,151.8c31.5,0,62.5,0,94.5,0c1.5-17.2,2.9-34.1,4.3-51
	c-47.7,0-94.9,0-142.2,0c0,64.5,0,128.5,0,193.5c29.8-5.3,59.1-10.4,87.6-15.5c0,15.1,0.2,29-0.2,42.9c0,1.6-3.1,4-5.2,4.6
	c-10.3,3-20.7,5.4-31.1,8.1c-17.1,4.5-34.3,9.1-51.2,13.6c0,17.3,0,33.9,0,51.4c40.5-10.6,80.5-21,120.7-31.5
	c3.8-48.4,7.6-96.7,11.5-145.4c-29.9,3.7-59.1,7.3-88.7,10.9C318.1,206.1,318.1,179.4,318.1,151.8z M195.5,100.6
	c0,76.6,0,152.6,0,228.6c0,0.7,0,1.3,0,2c0,3.5-0.7,5.3-5,3.8c-6.2-2.2-12.8-3.6-19.2-5.4c-21.1-5.8-42.1-11.6-63.9-17.6
	c0,16.7-0.1,32.9,0.2,49c0,1.3,2.4,3.2,4.1,3.7c24.5,7,49.1,13.8,73.7,20.7c17.3,4.8,34.6,9.5,51.8,14.3c0-99.8,0-199.3,0-299
	C223,100.6,209.5,100.6,195.5,100.6z"/>
</svg>
